<svg version="1.2" xmlns="http://www.w3.org/2000/svg" viewBox="0 0 36 33" width="36" height="33">
	<title>Path 5</title>
	<style>
		.s0 { fill: #ff6200 } 
	</style>
	<path id="Path 5" fill-rule="evenodd" class="s0" d="m9.3 26.8h-5.1c-2 0-3.7 1.7-3.7 3.7v2.5h2.5v-2.5c0-0.6 0.5-1.2 1.2-1.2l27.5 0.1c0.7 0 1.2 0.5 1.2 1.2v2.5h2.5v-2.5c0-2.1-1.6-3.7-3.7-3.7h-5.1c-0.6-4.3-4.2-7.5-8.6-7.5-4.4 0-8.1 3.2-8.7 7.4zm14.8 0.1l-12.3-0.1c0.6-2.8 3.2-4.9 6.2-4.9 3 0 5.5 2.1 6.1 5zm-17.3-15l-0.1 4.2c0 1.1 0.9 2 2 2h2.1c0.5 0.8 1.3 1.3 2.2 1.3 1.1 0 2.1-0.8 2.4-1.9 0.8 0.4 1.7 0.6 2.6 0.6 3.4 0 6.2-2.7 6.2-6.2 0-3.4-2.8-6.2-6.2-6.2-3.4 0-6.2 2.8-6.2 6.2-0.1 0.9 0.2 1.8 0.5 2.6-0.6 0.2-1.1 0.6-1.5 1.1h-1.6l0.1-3.7c0-4.8 3.9-8.7 8.7-8.7 4.8 0 8.7 3.9 8.7 8.7h2.5c0-6.1-5-11.2-11.2-11.2-6.2 0-11.2 5-11.2 11.2zm11.2 3.7c-2.1 0-3.8-1.6-3.8-3.7 0.1-2.1 1.7-3.7 3.8-3.7 2.1 0 3.7 1.7 3.7 3.7 0 2.1-1.6 3.7-3.7 3.7zm-2293.8 115.1v-4.5h-18.4l-0.1 33.2 18.5 0.1v-4.5h-13v-10.2l11.5 0.1 0.1-4.5h-11.6l0.1-9.8zm33.2 3.6q-2.5 1.4-3.7 3.8-1.4-2.6-3.9-3.9-2.5-1.4-5.6-1.4-2.4 0-4.4 0.9-2.1 0.9-3.4 2.6v-3.1h-5.5l-0.1 26.4h5.5v-14.7q0-3.6 1.8-5.4 1.8-1.9 4.9-1.9 3.1 0 4.9 1.9 1.7 1.9 1.7 5.4v14.7h5.4v-14.7q0-3.5 1.8-5.4 1.8-1.9 4.9-1.9 3.1 0 4.9 1.9 1.7 1.9 1.7 5.4v14.7l5.4 0.1v-15.6q0-3.6-1.4-6.1-1.4-2.5-3.9-3.8-2.4-1.3-5.5-1.3-2.9 0-5.5 1.4zm28.8-0.9l-5.5-0.1-0.1 38.9h5.5v-16.3q1.5 1.8 3.9 3 2.3 1.2 5.3 1.2 3.5 0 6.3-1.7 2.9-1.7 4.5-4.8 1.7-3.2 1.7-7.2 0-3.9-1.6-7-1.7-3-4.5-4.7-2.9-1.8-6.3-1.8-3 0-5.4 1.3-2.4 1.2-3.8 3zm14.8 17.9q-1.1 2-2.9 3.1-1.9 1.1-4 1.1-2 0-3.9-1.1-1.8-1-3-3.1-1.1-2-1.1-4.7 0.1-2.8 1.2-4.8 1.1-2 2.9-3 1.9-1.1 4-1.1 2.1 0 3.9 1.1 1.9 1 3 3 1.1 2 1.1 4.7 0 2.7-1.2 4.8zm12.2-26.9l-0.1 35.4h5.5l0.1-35.3zm30.9 34.1q3.2-1.7 5-4.8 1.9-3.1 1.9-7.1 0-4-1.8-7.1-1.8-3.1-4.8-4.8-3.1-1.7-6.9-1.7-3.8 0-6.8 1.7-3.1 1.6-4.9 4.7-1.8 3.1-1.8 7.2 0 4 1.7 7.1 1.7 3.1 4.8 4.8 3 1.7 6.7 1.7 3.8 0 6.9-1.7zm-12.4-5.3q-2.1-2.4-2.1-6.6 0-2.9 1-4.9 1.1-2 2.9-3 1.8-1 3.9-1 2.1 0 3.9 1.1 1.9 1 3 3 1.1 1.9 1 4.8 0 2.9-1.1 4.9-1.2 2-3 3-1.9 1-4 1-3.3 0-5.5-2.3zm42.8-19.7l-7.7 20.1-7.4-20.1h-6.1l10.3 25.9-5.4 12.8h5.7l16.3-38.7zm32.3 5.9q-1.6-3-4.5-4.6-2.9-1.7-6.7-1.7-3.9 0-6.9 1.7-3 1.7-4.6 4.8-1.7 3-1.7 7.1 0 4 1.7 7.2 1.7 3 4.7 4.7 3 1.7 6.8 1.7 4.6 0 7.7-2.2 3.2-2.4 4.4-6h-5.9q-1.8 3.7-6.2 3.6-3.1 0-5.2-1.9-2.1-1.9-2.3-5.1l20.1 0.1q0.2-1.2 0.2-2.7 0.1-3.8-1.6-6.7zm-18.7 5q0.4-3.1 2.4-4.9 2-1.8 4.9-1.8 3.1 0 5.2 1.9 2.1 1.8 2.1 4.8zm48.3-4.9q-1.6-3-4.5-4.6-2.9-1.7-6.7-1.7-3.8 0-6.9 1.7-2.9 1.7-4.6 4.8-1.7 3-1.7 7.1 0 4 1.7 7.1 1.7 3.1 4.7 4.8 3 1.7 6.8 1.7 4.6 0 7.8-2.3 3.1-2.3 4.3-5.9h-5.9q-1.8 3.6-6.2 3.6-3.1 0-5.2-1.9-2.1-1.9-2.3-5.1l20.2 0.1q0.2-1.2 0.2-2.7 0-3.8-1.7-6.7zm-18.7 4.9q0.4-3 2.4-4.8 2.1-1.8 4.9-1.8 3.1 0 5.2 1.8 2.1 1.9 2.2 4.9zm43.6-17.6h-5.4l-0.1 33.2h16.7v-4.4h-11.2zm21 2.4q1-1 1-2.5 0-1.4-1-2.4-1-1-2.4-1-1.5 0-2.5 1-1 1-1 2.4 0 1.5 1 2.5 1 1 2.5 1 1.4 0 2.4-1zm-5.2 4.5l-0.1 26.3h5.5l0.1-26.3zm27.5 25.8q2.3-1 3.5-2.7 1.3-1.8 1.3-4-0.1-2.6-1.4-4.1-1.4-1.5-3.2-2.3-1.8-0.8-4.7-1.6-2.2-0.6-3.3-1-1.1-0.4-1.8-1.2-0.8-0.7-0.8-1.7 0-1.4 1.1-2.2 1.2-0.8 3.4-0.8 2.2 0 3.5 1.1 1.2 1 1.4 2.8h5.5q-0.2-3.9-3-6.2-2.7-2.3-7.2-2.3-3.1 0-5.4 1-2.3 1-3.6 2.8-1.2 1.7-1.2 3.8 0 2.6 1.3 4.2 1.4 1.6 3.3 2.3 1.8 0.8 4.8 1.6 3.1 0.9 4.5 1.6 1.4 0.7 1.4 2.2 0 1.4-1.3 2.3-1.3 0.8-3.6 0.8-2.2 0-3.6-1.1-1.5-1.1-1.6-2.8h-5.7q0.1 2.4 1.5 4.3 1.5 2 3.9 3.1 2.5 1.1 5.6 1.1 3.1 0 5.4-1zm23.5-21.2v-4.5h-6.4v-6.5h-5.5v6.5h-3.1v4.4h3.1l-0.1 14.6q0 3.9 2 5.6 2 1.7 5.6 1.7l4.4 0.1v-4.6h-3.4q-1.7 0-2.4-0.6-0.7-0.7-0.6-2.2v-14.5z"/>
</svg>