<svg version="1.2" xmlns="http://www.w3.org/2000/svg" viewBox="0 0 48 49" width="48" height="49">
	<title>Path 147</title>
	<style>
		.s0 { fill: #ff6200 } 
	</style>
	<path id="Path 147" fill-rule="evenodd" class="s0" d="m10 37c1.1 0 2 0.9 2 2v8c0 1.1-0.9 2-2 2h-8c-1.1 0-2-0.9-2-2v-8c0-1.1 0.9-2 2-2zm18 0c1.1 0 2 0.9 2 2v8c0 1.1-0.9 2-2 2h-8c-1.1 0-2-0.9-2-2v-8c0-1.1 0.9-2 2-2zm18 0c1.1 0 2 0.9 2 2v8c0 1.1-0.9 2-2 2h-8c-1.1 0-2-0.9-2-2v-8c0-1.1 0.9-2 2-2zm-42 4v4h4v-4zm18 0v4h4v-4zm18 0v4h4v-4zm-12-22c1.1 0 2 0.9 2 2v8c0 1.1-0.9 2-2 2h-8c-1.1 0-2-0.9-2-2v-8c0-1.1 0.9-2 2-2zm18 0c1.1 0 2 0.9 2 2v8c0 1.1-0.9 2-2 2h-8c-1.1 0-2-0.9-2-2v-8c0-1.1 0.9-2 2-2zm-36 0c1.1 0 2 0.9 2 2v8c0 1.1-0.9 2-2 2h-8c-1.1 0-2-0.9-2-2v-8c0-1.1 0.9-2 2-2zm12 4v4h4v-4zm18 0v4h4v-4zm-36 0v4h4v-4zm6-22c1.1 0 2 0.9 2 2v8c0 1.1-0.9 2-2 2h-8c-1.1 0-2-0.9-2-2v-8c0-1.1 0.9-2 2-2zm18 0c1.1 0 2 0.9 2 2v8c0 1.1-0.9 2-2 2h-8c-1.1 0-2-0.9-2-2v-8c0-1.1 0.9-2 2-2zm18 0c1.1 0 2 0.9 2 2v8c0 1.1-0.9 2-2 2h-8c-1.1 0-2-0.9-2-2v-8c0-1.1 0.9-2 2-2zm-42 4v4h4v-4zm18 0v4h4v-4zm18 0v4h4v-4z"/>
</svg>